<svg width="40" height="40" viewBox="0 0 40 40" fill="none" xmlns="http://www.w3.org/2000/svg">
<path d="M12.9167 4.16663C12.9167 3.83511 12.785 3.51716 12.5505 3.28274C12.3161 3.04832 11.9982 2.91663 11.6667 2.91663C11.3351 2.91663 11.0172 3.04832 10.7828 3.28274C10.5484 3.51716 10.4167 3.83511 10.4167 4.16663V6.79996C8.01666 6.99163 6.44333 7.46163 5.28666 8.61996C4.12833 9.77663 3.65833 11.3516 3.465 13.75H36.535C36.3417 11.35 35.8717 9.77663 34.7133 8.61996C33.5567 7.46163 31.9817 6.99163 29.5833 6.79829V4.16663C29.5833 3.83511 29.4516 3.51716 29.2172 3.28274C28.9828 3.04832 28.6649 2.91663 28.3333 2.91663C28.0018 2.91663 27.6839 3.04832 27.4494 3.28274C27.215 3.51716 27.0833 3.83511 27.0833 4.16663V6.68829C25.975 6.66663 24.7317 6.66663 23.3333 6.66663H16.6667C15.2683 6.66663 14.025 6.66663 12.9167 6.68829V4.16663Z" fill="#2B3997"/>
<path fill-rule="evenodd" clip-rule="evenodd" d="M3.33333 20C3.33333 18.6017 3.33333 17.3583 3.35499 16.25H36.645C36.6667 17.3583 36.6667 18.6017 36.6667 20V23.3333C36.6667 29.6183 36.6667 32.7617 34.7133 34.7133C32.76 36.665 29.6183 36.6667 23.3333 36.6667H16.6667C10.3817 36.6667 7.23833 36.6667 5.28666 34.7133C3.33499 32.76 3.33333 29.6183 3.33333 23.3333V20ZM28.3333 23.3333C28.7754 23.3333 29.1993 23.1577 29.5118 22.8452C29.8244 22.5326 30 22.1087 30 21.6667C30 21.2246 29.8244 20.8007 29.5118 20.4882C29.1993 20.1756 28.7754 20 28.3333 20C27.8913 20 27.4674 20.1756 27.1548 20.4882C26.8423 20.8007 26.6667 21.2246 26.6667 21.6667C26.6667 22.1087 26.8423 22.5326 27.1548 22.8452C27.4674 23.1577 27.8913 23.3333 28.3333 23.3333ZM28.3333 30C28.7754 30 29.1993 29.8244 29.5118 29.5118C29.8244 29.1993 30 28.7754 30 28.3333C30 27.8913 29.8244 27.4674 29.5118 27.1548C29.1993 26.8423 28.7754 26.6667 28.3333 26.6667C27.8913 26.6667 27.4674 26.8423 27.1548 27.1548C26.8423 27.4674 26.6667 27.8913 26.6667 28.3333C26.6667 28.7754 26.8423 29.1993 27.1548 29.5118C27.4674 29.8244 27.8913 30 28.3333 30ZM21.6667 21.6667C21.6667 22.1087 21.4911 22.5326 21.1785 22.8452C20.8659 23.1577 20.442 23.3333 20 23.3333C19.558 23.3333 19.134 23.1577 18.8215 22.8452C18.5089 22.5326 18.3333 22.1087 18.3333 21.6667C18.3333 21.2246 18.5089 20.8007 18.8215 20.4882C19.134 20.1756 19.558 20 20 20C20.442 20 20.8659 20.1756 21.1785 20.4882C21.4911 20.8007 21.6667 21.2246 21.6667 21.6667ZM21.6667 28.3333C21.6667 28.7754 21.4911 29.1993 21.1785 29.5118C20.8659 29.8244 20.442 30 20 30C19.558 30 19.134 29.8244 18.8215 29.5118C18.5089 29.1993 18.3333 28.7754 18.3333 28.3333C18.3333 27.8913 18.5089 27.4674 18.8215 27.1548C19.134 26.8423 19.558 26.6667 20 26.6667C20.442 26.6667 20.8659 26.8423 21.1785 27.1548C21.4911 27.4674 21.6667 27.8913 21.6667 28.3333ZM11.6667 23.3333C12.1087 23.3333 12.5326 23.1577 12.8452 22.8452C13.1577 22.5326 13.3333 22.1087 13.3333 21.6667C13.3333 21.2246 13.1577 20.8007 12.8452 20.4882C12.5326 20.1756 12.1087 20 11.6667 20C11.2246 20 10.8007 20.1756 10.4882 20.4882C10.1756 20.8007 9.99999 21.2246 9.99999 21.6667C9.99999 22.1087 10.1756 22.5326 10.4882 22.8452C10.8007 23.1577 11.2246 23.3333 11.6667 23.3333ZM11.6667 30C12.1087 30 12.5326 29.8244 12.8452 29.5118C13.1577 29.1993 13.3333 28.7754 13.3333 28.3333C13.3333 27.8913 13.1577 27.4674 12.8452 27.1548C12.5326 26.8423 12.1087 26.6667 11.6667 26.6667C11.2246 26.6667 10.8007 26.8423 10.4882 27.1548C10.1756 27.4674 9.99999 27.8913 9.99999 28.3333C9.99999 28.7754 10.1756 29.1993 10.4882 29.5118C10.8007 29.8244 11.2246 30 11.6667 30Z" fill="#2B3997"/>
</svg>
