<svg width="40" height="40" viewBox="0 0 40 40" fill="none" xmlns="http://www.w3.org/2000/svg">
<path fill-rule="evenodd" clip-rule="evenodd" d="M10 3.33337C8.67392 3.33337 7.40215 3.86016 6.46447 4.79784C5.52678 5.73552 5 7.00729 5 8.33337V31.6667C5 32.9928 5.52678 34.2646 6.46447 35.2022C7.40215 36.1399 8.67392 36.6667 10 36.6667H20C21.3261 36.6667 22.5979 36.1399 23.5355 35.2022C24.4732 34.2646 25 32.9928 25 31.6667V8.33337C25 7.00729 24.4732 5.73552 23.5355 4.79784C22.5979 3.86016 21.3261 3.33337 20 3.33337H10ZM27.155 12.155C27.4675 11.8426 27.8914 11.6671 28.3333 11.6671C28.7753 11.6671 29.1991 11.8426 29.5117 12.155L36.1783 18.8217C36.4908 19.1343 36.6663 19.5581 36.6663 20C36.6663 20.442 36.4908 20.8658 36.1783 21.1784L29.5117 27.845C29.1973 28.1486 28.7763 28.3166 28.3393 28.3128C27.9023 28.309 27.4843 28.1338 27.1753 27.8247C26.8663 27.5157 26.691 27.0977 26.6872 26.6607C26.6834 26.2237 26.8514 25.8027 27.155 25.4884L30.9767 21.6667H16.6667C16.2246 21.6667 15.8007 21.4911 15.4882 21.1786C15.1756 20.866 15 20.4421 15 20C15 19.558 15.1756 19.1341 15.4882 18.8215C15.8007 18.509 16.2246 18.3334 16.6667 18.3334H30.9767L27.155 14.5117C26.8425 14.1992 26.667 13.7753 26.667 13.3334C26.667 12.8914 26.8425 12.4676 27.155 12.155Z" fill="#CF8610"/>
</svg>
