<svg width="40" height="40" viewBox="0 0 40 40" fill="none" xmlns="http://www.w3.org/2000/svg">
<path d="M4.59167 24.5267L5.45333 27.7467C6.46 31.505 6.965 33.385 8.10667 34.6034C9.00774 35.5647 10.1735 36.2375 11.4567 36.5367C13.0833 36.9167 14.9633 36.4134 18.7233 35.4067C22.48 34.4 24.36 33.8967 25.5783 32.755C25.6794 32.6595 25.7772 32.5617 25.8717 32.4617C25.304 32.4105 24.7398 32.3271 24.1817 32.2117C23.0217 31.9817 21.6433 31.6117 20.0133 31.175L19.835 31.1267L19.7933 31.1167C18.02 30.64 16.5383 30.2434 15.355 29.8167C14.11 29.3667 12.98 28.8117 12.0183 27.9117C10.6955 26.6724 9.76986 25.0687 9.35833 23.3034C9.05833 22.0217 9.145 20.765 9.37833 19.4634C9.60167 18.215 10.0017 16.7184 10.4817 14.9267L11.3733 11.6034L11.4033 11.4867C8.20333 12.3484 6.51833 12.8584 5.395 13.91C4.43249 14.8118 3.75909 15.9788 3.46 17.2634C3.08 18.8884 3.58333 20.7684 4.59167 24.5267Z" fill="#31971A"/>
<path fill-rule="evenodd" clip-rule="evenodd" d="M34.7167 17.8584L33.8533 21.0784C32.845 24.8367 32.3417 26.7167 31.2 27.935C30.2991 28.897 29.1334 29.5703 27.85 29.87C27.6889 29.9078 27.525 29.9367 27.3583 29.9567C25.8333 30.145 23.9717 29.6467 20.585 28.74C16.8267 27.7317 14.9467 27.2284 13.7283 26.0867C12.7661 25.1854 12.0927 24.019 11.7933 22.735C11.4133 21.1084 11.9167 19.23 12.925 15.4717L13.7867 12.2517L14.1933 10.7434C14.9517 7.9667 15.4617 6.43836 16.44 5.39336C17.3411 4.43203 18.5068 3.75926 19.79 3.46003C21.4167 3.08003 23.2967 3.58336 27.0567 4.5917C30.8133 5.59836 32.6933 6.1017 33.9117 7.2417C34.8742 8.14345 35.5476 9.31045 35.8467 10.595C36.2267 12.2217 35.7233 14.1 34.7167 17.8584ZM18.4183 16.3417C18.4609 16.1831 18.5342 16.0345 18.6342 15.9042C18.7342 15.774 18.8589 15.6647 19.0012 15.5827C19.1434 15.5007 19.3004 15.4475 19.4632 15.4261C19.626 15.4048 19.7914 15.4158 19.95 15.4584L28 17.6167C28.1627 17.6553 28.3161 17.7262 28.451 17.8251C28.5858 17.924 28.6995 18.049 28.7852 18.1927C28.8708 18.3364 28.9268 18.4958 28.9498 18.6614C28.9727 18.8271 28.9622 18.9957 28.9188 19.1573C28.8754 19.3188 28.8 19.47 28.6971 19.6019C28.5942 19.7338 28.4659 19.8437 28.3198 19.925C28.1736 20.0064 28.0127 20.0576 27.8464 20.0757C27.6801 20.0937 27.5118 20.0782 27.3517 20.03L19.3017 17.8734C18.9817 17.7874 18.709 17.578 18.5434 17.2911C18.3778 17.0043 18.3328 16.6617 18.4183 16.3417ZM17.125 21.1734C17.2109 20.8534 17.4203 20.5807 17.7072 20.4151C17.9941 20.2495 18.335 20.2045 18.655 20.29L23.485 21.585C23.6485 21.6228 23.8028 21.6931 23.9386 21.7917C24.0744 21.8903 24.1889 22.0153 24.2753 22.1592C24.3618 22.303 24.4184 22.4628 24.4417 22.629C24.4651 22.7952 24.4547 22.9644 24.4113 23.1265C24.3679 23.2887 24.2922 23.4404 24.1889 23.5726C24.0856 23.7049 23.9566 23.815 23.8099 23.8963C23.6631 23.9777 23.5014 24.0286 23.3345 24.0462C23.1676 24.0637 22.9988 24.0474 22.8383 23.9984L18.0083 22.705C17.8497 22.6625 17.7011 22.5891 17.5709 22.4891C17.4406 22.3891 17.3314 22.2644 17.2494 22.1222C17.1673 21.98 17.1141 21.823 17.0928 21.6601C17.0714 21.4973 17.0824 21.3319 17.125 21.1734Z" fill="#31971A"/>
</svg>
