<svg width="40" height="40" viewBox="0 0 40 40" fill="none" xmlns="http://www.w3.org/2000/svg">
<path d="M10.715 4.02166C10.9251 3.77087 11.0285 3.4477 11.0031 3.12151C10.9776 2.79532 10.8252 2.49213 10.5787 2.27702C10.3322 2.06191 10.0111 1.95203 9.68449 1.97097C9.35785 1.98991 9.05167 2.13616 8.83166 2.37833L6.67832 4.845C5.45729 6.24427 4.76705 8.02828 4.72832 9.885L4.63332 14.4167C4.62647 14.7482 4.7516 15.0688 4.98117 15.3081C5.21075 15.5474 5.52597 15.6856 5.85749 15.6925C6.18901 15.6993 6.50968 15.5742 6.74894 15.3446C6.98821 15.1151 7.12647 14.7998 7.13332 14.4683L7.22666 9.93833C7.2534 8.66787 7.72595 7.44726 8.56166 6.49L10.715 4.02166Z" fill="#54405E"/>
<path fill-rule="evenodd" clip-rule="evenodd" d="M10.395 12.8333C10.5069 11.0502 11.2942 9.37678 12.5965 8.15371C13.8989 6.93063 15.6184 6.24986 17.405 6.24998H18.3333V4.99998C18.3333 4.55795 18.5089 4.13403 18.8215 3.82147C19.134 3.50891 19.558 3.33331 20 3.33331C20.442 3.33331 20.8659 3.50891 21.1785 3.82147C21.4911 4.13403 21.6667 4.55795 21.6667 4.99998V6.24998H22.595C24.3816 6.24986 26.1011 6.93063 27.4035 8.15371C28.7058 9.37678 29.4931 11.0502 29.605 12.8333L29.9733 18.7233C30.1157 20.9687 30.8696 23.1323 32.1533 24.98C32.4189 25.3618 32.5812 25.8058 32.6244 26.2688C32.6676 26.7319 32.5902 27.1983 32.3998 27.6226C32.2094 28.0469 31.9124 28.4147 31.5377 28.6902C31.163 28.9658 30.7234 29.1397 30.2617 29.195L24.5833 29.875V31.6666C24.5833 32.8822 24.1004 34.048 23.2409 34.9076C22.3814 35.7671 21.2156 36.25 20 36.25C18.7844 36.25 17.6186 35.7671 16.7591 34.9076C15.8996 34.048 15.4167 32.8822 15.4167 31.6666V29.875L9.73833 29.1933C9.27682 29.1378 8.83751 28.9639 8.46307 28.6885C8.08864 28.4131 7.7918 28.0455 7.60142 27.6214C7.41103 27.1974 7.33356 26.7313 7.37653 26.2684C7.41951 25.8056 7.58146 25.3617 7.84666 24.98C9.1304 23.1323 9.88428 20.9687 10.0267 18.7233L10.395 12.8333ZM17.9167 31.6666C17.9167 32.2192 18.1362 32.7491 18.5269 33.1398C18.9176 33.5305 19.4475 33.75 20 33.75C20.5525 33.75 21.0824 33.5305 21.4731 33.1398C21.8638 32.7491 22.0833 32.2192 22.0833 31.6666V30.4166H17.9167V31.6666Z" fill="#54405E"/>
<path d="M29.405 2.25836C29.1553 2.47632 29.0024 2.78451 28.9799 3.11518C28.9574 3.44585 29.0672 3.77192 29.285 4.02169L31.4384 6.48836C32.2738 7.4463 32.7458 8.66754 32.7717 9.93836L32.8667 14.4667C32.8701 14.6308 32.9058 14.7927 32.9717 14.9431C33.0377 15.0934 33.1326 15.2293 33.2511 15.343C33.3696 15.4567 33.5093 15.5459 33.6622 15.6056C33.8152 15.6653 33.9784 15.6943 34.1425 15.6909C34.3067 15.6875 34.4686 15.6518 34.6189 15.5858C34.7693 15.5199 34.9052 15.4249 35.0188 15.3065C35.1325 15.188 35.2217 15.0483 35.2814 14.8953C35.3411 14.7424 35.3701 14.5792 35.3667 14.415L35.2717 9.88503C35.233 8.02831 34.5427 6.2443 33.3217 4.84503L31.1684 2.37836C30.9504 2.12867 30.6422 1.97577 30.3115 1.95327C29.9809 1.93076 29.6548 2.0405 29.405 2.25836Z" fill="#54405E"/>
</svg>
