<svg width="42" height="40" viewBox="0 0 42 40" fill="none" xmlns="http://www.w3.org/2000/svg">
<path fill-rule="evenodd" clip-rule="evenodd" d="M12.978 4.99998C12.4971 6.05154 12.2492 7.18633 12.25 8.33331C12.25 9.21737 12.6187 10.0652 13.2751 10.6903C13.9315 11.3155 14.8217 11.6666 15.75 11.6666H26.25C27.1783 11.6666 28.0685 11.3155 28.7249 10.6903C29.3813 10.0652 29.75 9.21737 29.75 8.33331C29.75 7.14831 29.491 6.01998 29.022 4.99998H31.5C32.4283 4.99998 33.3185 5.35117 33.9749 5.97629C34.6313 6.60141 35 7.44926 35 8.33331V33.3333C35 34.2174 34.6313 35.0652 33.9749 35.6903C33.3185 36.3155 32.4283 36.6666 31.5 36.6666H10.5C9.57174 36.6666 8.6815 36.3155 8.02513 35.6903C7.36875 35.0652 7 34.2174 7 33.3333V8.33331C7 7.44926 7.36875 6.60141 8.02513 5.97629C8.6815 5.35117 9.57174 4.99998 10.5 4.99998H12.978ZM21 23.3333H15.75C15.2859 23.3333 14.8408 23.5089 14.5126 23.8215C14.1844 24.134 14 24.558 14 25C14 25.442 14.1844 25.8659 14.5126 26.1785C14.8408 26.4911 15.2859 26.6666 15.75 26.6666H21C21.4641 26.6666 21.9092 26.4911 22.2374 26.1785C22.5656 25.8659 22.75 25.442 22.75 25C22.75 24.558 22.5656 24.134 22.2374 23.8215C21.9092 23.5089 21.4641 23.3333 21 23.3333ZM26.25 16.6666H15.75C15.304 16.6671 14.8749 16.8298 14.5506 17.1214C14.2263 17.413 14.0311 17.8116 14.0049 18.2356C13.9788 18.6597 14.1237 19.0773 14.41 19.403C14.6962 19.7288 15.1023 19.9381 15.5453 19.9883L15.75 20H26.25C26.7141 20 27.1592 19.8244 27.4874 19.5118C27.8156 19.1993 28 18.7753 28 18.3333C28 17.8913 27.8156 17.4674 27.4874 17.1548C27.1592 16.8422 26.7141 16.6666 26.25 16.6666ZM21 3.33331C21.7386 3.33333 22.469 3.48179 23.1432 3.76898C23.8175 4.05618 24.4206 4.47565 24.913 4.99998C25.662 5.79665 26.145 6.82165 26.2343 7.95331L26.25 8.33331H15.75C15.75 7.12498 16.1998 6.01665 16.9488 5.15331L17.087 4.99998C18.0495 3.97665 19.446 3.33331 21 3.33331Z" fill="#D02F31"/>
</svg>
